<?xml version="1.0" standalone="no"?>
<!DOCTYPE svg PUBLIC "-//W3C//DTD SVG 20010904//EN"
 "http://www.w3.org/TR/2001/REC-SVG-20010904/DTD/svg10.dtd">
<svg version="1.0" xmlns="http://www.w3.org/2000/svg"
 width="1392.000000pt" height="1392.000000pt" viewBox="0 0 1392.000000 1392.000000"
 preserveAspectRatio="xMidYMid meet">
<metadata>
Created by potrace 1.11, written by Peter Selinger 2001-2013
</metadata>
<g transform="translate(0.000000,1392.000000) scale(0.100000,-0.100000)"
fill="#000000" stroke="none">
<path d="M5157 11513 c-2 -5 -3 -17 -1 -28 2 -11 6 -45 10 -75 3 -30 7 -66 9
-80 14 -108 27 -253 26 -295 -1 -74 -12 -170 -23 -192 -28 -59 -40 -43 -107
141 -35 97 -70 181 -78 188 -19 15 -48 -19 -98 -117 -20 -38 -40 -74 -44 -80
-12 -16 -56 -129 -53 -137 1 -5 -2 -8 -7 -8 -5 0 -11 -10 -14 -22 -3 -13 -17
-57 -32 -98 -57 -160 -80 -189 -104 -132 -19 45 -31 153 -33 294 -2 107 -12
130 -44 100 -10 -10 -30 -25 -42 -34 -36 -24 -150 -137 -207 -202 -27 -32 -56
-64 -62 -71 -7 -8 -13 -16 -13 -20 0 -3 -9 -16 -21 -28 -55 -58 -197 -317
-215 -390 -5 -21 -18 -34 -48 -47 -42 -19 -76 -51 -76 -73 0 -7 -4 -17 -9 -22
-11 -12 -48 -137 -56 -190 -4 -22 -8 -51 -10 -65 -5 -28 -14 -106 -19 -163 -2
-21 -6 -40 -8 -43 -3 -2 -20 17 -38 44 -56 78 -202 215 -284 267 -72 44 -168
89 -219 102 -104 25 -252 34 -331 19 -12 -2 -39 -7 -61 -11 -22 -4 -76 -24
-121 -46 -61 -29 -95 -53 -135 -97 -174 -187 -217 -461 -119 -754 64 -191 194
-388 331 -503 38 -32 44 -41 34 -52 -8 -7 -16 -13 -20 -13 -3 0 -11 -5 -18
-10 -7 -6 -41 -33 -77 -61 -200 -155 -392 -388 -517 -629 -55 -107 -142 -325
-134 -338 1 -1 -6 -16 -14 -32 -9 -17 -13 -35 -10 -40 3 -6 1 -10 -6 -10 -7 0
-10 -2 -7 -6 3 -3 2 -22 -3 -42 -15 -58 -19 -75 -24 -102 -7 -34 -16 -89 -19
-121 -2 -14 -5 -30 -7 -35 -9 -17 -13 -119 -13 -314 0 -175 3 -226 20 -350 7
-50 33 -178 45 -225 6 -22 12 -47 14 -56 15 -78 112 -326 179 -459 19 -38 32
-77 30 -95 -1 -16 -5 -57 -8 -90 -11 -112 -21 -221 -31 -360 -3 -44 -8 -102
-10 -130 -7 -76 -25 -404 -40 -735 -20 -446 -27 -1980 -12 -2710 14 -657 17
-857 21 -1206 3 -261 8 -357 17 -372 15 -24 51 -42 83 -42 31 0 74 35 78 63
l3 22 4537 2 4537 1 19 -36 c23 -45 66 -61 112 -42 36 15 50 38 55 88 17 188
19 224 32 522 10 225 10 1577 0 2000 -16 631 -24 897 -32 1060 -2 41 -7 131
-10 200 -3 69 -7 154 -9 190 -7 109 -18 291 -21 364 -2 38 -6 101 -9 140 -3
39 -8 107 -11 151 -11 158 -26 363 -30 405 -2 19 -7 71 -11 115 -4 44 -8 89
-9 100 -1 20 32 87 47 93 4 2 8 10 8 17 0 8 6 18 13 22 6 4 17 17 24 28 73
121 166 295 157 295 -3 0 2 7 10 16 9 8 16 23 16 33 0 9 4 21 9 26 5 6 25 60
46 120 20 61 41 119 45 130 5 11 12 34 16 50 4 17 8 35 10 40 20 81 45 218 48
261 2 23 6 46 8 50 21 39 16 522 -7 634 -2 13 -7 42 -11 65 -3 22 -10 58 -15
80 -5 22 -12 51 -15 65 -2 14 -9 39 -15 56 -5 17 -11 40 -13 50 -3 10 -9 30
-14 44 -5 14 -10 27 -10 30 0 3 -6 19 -12 35 -7 17 -23 59 -36 95 -14 36 -34
80 -44 98 -11 18 -20 37 -20 42 0 19 -134 233 -201 320 -78 102 -219 249 -309
321 -30 24 -56 47 -58 52 -2 4 -8 7 -14 7 -5 0 -25 12 -43 26 l-34 26 37 51
c141 193 252 430 282 602 12 72 16 188 7 230 -4 17 -9 45 -12 64 -3 19 -21 68
-40 109 -80 173 -220 287 -401 328 -131 29 -382 5 -476 -46 -13 -8 -22 1 -47
45 -17 30 -31 59 -31 65 0 5 -3 10 -7 10 -5 0 -21 21 -37 48 -54 86 -118 166
-187 234 -70 68 -149 128 -168 128 -6 0 -11 5 -11 10 0 6 -6 10 -14 10 -8 0
-16 3 -18 8 -1 4 -41 26 -88 49 -135 66 -240 118 -305 151 -124 64 -253 119
-264 113 -2 -2 -7 1 -10 6 -6 9 -197 79 -331 122 -176 56 -229 73 -241 75 -18
3 -126 35 -159 46 -23 8 -248 69 -274 75 -6 1 -18 4 -26 8 -8 3 -37 10 -65 17
-27 7 -57 14 -65 17 -8 4 -19 7 -25 8 -25 6 -303 86 -330 94 -16 6 -51 13 -76
16 -74 10 -77 2 -63 -202 6 -77 5 -83 -13 -83 -11 0 -30 12 -44 26 -37 39
-161 113 -245 146 -65 25 -195 61 -294 82 -101 21 -253 70 -277 88 -22 17 -73
27 -74 15 -4 -34 12 -165 30 -240 12 -52 2 -54 -105 -22 -48 15 -92 28 -98 30
-6 1 -18 5 -26 8 -8 3 -33 11 -55 17 -22 6 -47 14 -55 17 -8 4 -17 7 -20 8
-11 4 -51 19 -190 72 -80 31 -171 68 -202 83 -31 15 -59 25 -62 22 -4 -3 -6 1
-6 8 0 7 -3 10 -6 7 -4 -4 -20 3 -35 14 -16 11 -29 18 -29 14 0 -3 -10 1 -21
9 -21 14 -49 12 -49 -4 0 -5 20 -51 44 -102 89 -189 95 -270 15 -210 -13 9
-44 28 -68 41 -51 28 -312 202 -331 221 -3 3 -32 25 -65 50 -33 24 -65 49 -71
55 -6 5 -27 21 -47 35 -20 14 -37 28 -37 33 0 4 -11 7 -24 7 -14 0 -27 -3 -29
-7z"/>
</g>
</svg>
